{
	"patcher" : 	{
		"fileversion" : 1,
		"appversion" : 		{
			"major" : 8,
			"minor" : 5,
			"revision" : 4,
			"architecture" : "x64",
			"modernui" : 1
		}
,
		"classnamespace" : "box",
		"rect" : [ 797.0, 102.0, 1041.0, 926.0 ],
		"bglocked" : 0,
		"openinpresentation" : 0,
		"default_fontsize" : 12.0,
		"default_fontface" : 0,
		"default_fontname" : "Arial",
		"gridonopen" : 1,
		"gridsize" : [ 15.0, 15.0 ],
		"gridsnaponopen" : 1,
		"objectsnaponopen" : 1,
		"statusbarvisible" : 2,
		"toolbarvisible" : 1,
		"lefttoolbarpinned" : 0,
		"toptoolbarpinned" : 0,
		"righttoolbarpinned" : 0,
		"bottomtoolbarpinned" : 0,
		"toolbars_unpinned_last_save" : 0,
		"tallnewobj" : 0,
		"boxanimatetime" : 200,
		"enablehscroll" : 1,
		"enablevscroll" : 1,
		"devicewidth" : 0.0,
		"description" : "",
		"digest" : "",
		"tags" : "",
		"style" : "",
		"subpatcher_template" : "",
		"assistshowspatchername" : 0,
		"boxes" : [ 			{
				"box" : 				{
					"id" : "obj-104",
					"maxclass" : "comment",
					"numinlets" : 1,
					"numoutlets" : 0,
					"patching_rect" : [ 684.0, 155.0, 173.0, 20.0 ],
					"text" : "mod © 2019 Flavio Severino"
				}

			}
, 			{
				"box" : 				{
					"bufsize" : 32,
					"calccount" : 32,
					"id" : "obj-100",
					"maxclass" : "scope~",
					"numinlets" : 2,
					"numoutlets" : 0,
					"patching_rect" : [ 901.25, 448.0, 130.0, 130.0 ]
				}

			}
, 			{
				"box" : 				{
					"bufsize" : 32,
					"calccount" : 32,
					"id" : "obj-99",
					"maxclass" : "scope~",
					"numinlets" : 2,
					"numoutlets" : 0,
					"patching_rect" : [ 764.25, 448.0, 130.0, 130.0 ]
				}

			}
, 			{
				"box" : 				{
					"bufsize" : 32,
					"calccount" : 32,
					"id" : "obj-98",
					"maxclass" : "scope~",
					"numinlets" : 2,
					"numoutlets" : 0,
					"patching_rect" : [ 133.0, 737.0, 130.0, 130.0 ]
				}

			}
, 			{
				"box" : 				{
					"id" : "obj-96",
					"maxclass" : "comment",
					"numinlets" : 1,
					"numoutlets" : 0,
					"patching_rect" : [ 872.0, 747.5, 120.0, 20.0 ],
					"text" : "MIDI instrument 127"
				}

			}
, 			{
				"box" : 				{
					"id" : "obj-94",
					"maxclass" : "message",
					"numinlets" : 2,
					"numoutlets" : 1,
					"outlettype" : [ "" ],
					"patching_rect" : [ 239.0, 467.0, 29.5, 22.0 ],
					"text" : "0"
				}

			}
, 			{
				"box" : 				{
					"id" : "obj-92",
					"maxclass" : "gswitch2",
					"numinlets" : 2,
					"numoutlets" : 2,
					"outlettype" : [ "", "" ],
					"parameter_enable" : 0,
					"patching_rect" : [ 559.0, 472.0, 39.0, 32.0 ]
				}

			}
, 			{
				"box" : 				{
					"id" : "obj-90",
					"maxclass" : "newobj",
					"numinlets" : 2,
					"numoutlets" : 1,
					"outlettype" : [ "signal" ],
					"patching_rect" : [ 90.0, 663.0, 40.0, 22.0 ],
					"text" : "*~ 0.2"
				}

			}
, 			{
				"box" : 				{
					"id" : "obj-89",
					"maxclass" : "newobj",
					"numinlets" : 2,
					"numoutlets" : 1,
					"outlettype" : [ "signal" ],
					"patching_rect" : [ 770.0, 329.0, 40.0, 22.0 ],
					"text" : "*~ 0.7"
				}

			}
, 			{
				"box" : 				{
					"id" : "obj-79",
					"maxclass" : "comment",
					"numinlets" : 1,
					"numoutlets" : 0,
					"patching_rect" : [ 830.875, 193.0, 37.75, 20.0 ],
					"text" : "boop"
				}

			}
, 			{
				"box" : 				{
					"id" : "obj-80",
					"maxclass" : "newobj",
					"numinlets" : 2,
					"numoutlets" : 1,
					"outlettype" : [ "bang" ],
					"patching_rect" : [ 847.75, 233.0, 69.0, 22.0 ],
					"text" : "qmetro 700"
				}

			}
, 			{
				"box" : 				{
					"id" : "obj-82",
					"maxclass" : "newobj",
					"numinlets" : 2,
					"numoutlets" : 2,
					"outlettype" : [ "bang", "" ],
					"patching_rect" : [ 847.75, 286.0, 34.0, 22.0 ],
					"text" : "sel 1"
				}

			}
, 			{
				"box" : 				{
					"id" : "obj-83",
					"maxclass" : "newobj",
					"numinlets" : 5,
					"numoutlets" : 4,
					"outlettype" : [ "int", "", "", "int" ],
					"patching_rect" : [ 847.75, 262.0, 61.0, 22.0 ],
					"text" : "counter 2"
				}

			}
, 			{
				"box" : 				{
					"id" : "obj-84",
					"maxclass" : "newobj",
					"numinlets" : 3,
					"numoutlets" : 3,
					"outlettype" : [ "bang", "bang", "" ],
					"patching_rect" : [ 770.0, 233.0, 44.0, 22.0 ],
					"text" : "sel 0 1"
				}

			}
, 			{
				"box" : 				{
					"id" : "obj-85",
					"maxclass" : "message",
					"numinlets" : 2,
					"numoutlets" : 1,
					"outlettype" : [ "" ],
					"patching_rect" : [ 770.0, 262.0, 29.5, 22.0 ],
					"text" : "0"
				}

			}
, 			{
				"box" : 				{
					"id" : "obj-86",
					"maxclass" : "message",
					"numinlets" : 2,
					"numoutlets" : 1,
					"outlettype" : [ "" ],
					"patching_rect" : [ 807.0, 262.0, 29.5, 22.0 ],
					"text" : "60"
				}

			}
, 			{
				"box" : 				{
					"id" : "obj-87",
					"maxclass" : "toggle",
					"numinlets" : 1,
					"numoutlets" : 1,
					"outlettype" : [ "int" ],
					"parameter_enable" : 0,
					"patching_rect" : [ 770.0, 193.0, 24.0, 24.0 ]
				}

			}
, 			{
				"box" : 				{
					"id" : "obj-88",
					"maxclass" : "newobj",
					"numinlets" : 2,
					"numoutlets" : 1,
					"outlettype" : [ "signal" ],
					"patching_rect" : [ 770.0, 294.0, 43.0, 22.0 ],
					"text" : "cycle~"
				}

			}
, 			{
				"box" : 				{
					"id" : "obj-76",
					"maxclass" : "newobj",
					"numinlets" : 2,
					"numoutlets" : 2,
					"outlettype" : [ "bang", "" ],
					"patching_rect" : [ 659.0, 179.0, 34.0, 22.0 ],
					"text" : "sel 1"
				}

			}
, 			{
				"box" : 				{
					"id" : "obj-72",
					"maxclass" : "comment",
					"numinlets" : 1,
					"numoutlets" : 0,
					"patching_rect" : [ 150.875, 531.0, 37.75, 20.0 ],
					"text" : "beep"
				}

			}
, 			{
				"box" : 				{
					"id" : "obj-63",
					"maxclass" : "newobj",
					"numinlets" : 2,
					"numoutlets" : 1,
					"outlettype" : [ "bang" ],
					"patching_rect" : [ 167.75, 571.0, 69.0, 22.0 ],
					"text" : "qmetro 200"
				}

			}
, 			{
				"box" : 				{
					"id" : "obj-62",
					"maxclass" : "newobj",
					"numinlets" : 2,
					"numoutlets" : 2,
					"outlettype" : [ "bang", "" ],
					"patching_rect" : [ 167.75, 624.0, 34.0, 22.0 ],
					"text" : "sel 1"
				}

			}
, 			{
				"box" : 				{
					"id" : "obj-56",
					"maxclass" : "newobj",
					"numinlets" : 5,
					"numoutlets" : 4,
					"outlettype" : [ "int", "", "", "int" ],
					"patching_rect" : [ 167.75, 600.0, 61.0, 22.0 ],
					"text" : "counter 2"
				}

			}
, 			{
				"box" : 				{
					"id" : "obj-55",
					"maxclass" : "newobj",
					"numinlets" : 2,
					"numoutlets" : 2,
					"outlettype" : [ "bang", "" ],
					"patching_rect" : [ 621.0, 136.0, 34.0, 22.0 ],
					"text" : "sel 9"
				}

			}
, 			{
				"box" : 				{
					"id" : "obj-48",
					"maxclass" : "newobj",
					"numinlets" : 3,
					"numoutlets" : 3,
					"outlettype" : [ "bang", "bang", "" ],
					"patching_rect" : [ 90.0, 571.0, 44.0, 22.0 ],
					"text" : "sel 0 1"
				}

			}
, 			{
				"box" : 				{
					"id" : "obj-47",
					"maxclass" : "message",
					"numinlets" : 2,
					"numoutlets" : 1,
					"outlettype" : [ "" ],
					"patching_rect" : [ 90.0, 600.0, 29.5, 22.0 ],
					"text" : "0"
				}

			}
, 			{
				"box" : 				{
					"id" : "obj-43",
					"maxclass" : "message",
					"numinlets" : 2,
					"numoutlets" : 1,
					"outlettype" : [ "" ],
					"patching_rect" : [ 127.0, 600.0, 29.5, 22.0 ],
					"text" : "800"
				}

			}
, 			{
				"box" : 				{
					"id" : "obj-38",
					"maxclass" : "toggle",
					"numinlets" : 1,
					"numoutlets" : 1,
					"outlettype" : [ "int" ],
					"parameter_enable" : 0,
					"patching_rect" : [ 90.0, 531.0, 24.0, 24.0 ]
				}

			}
, 			{
				"box" : 				{
					"id" : "obj-22",
					"maxclass" : "toggle",
					"numinlets" : 1,
					"numoutlets" : 1,
					"outlettype" : [ "int" ],
					"parameter_enable" : 0,
					"patching_rect" : [ 594.0, 345.0, 24.0, 24.0 ]
				}

			}
, 			{
				"box" : 				{
					"id" : "obj-18",
					"maxclass" : "toggle",
					"numinlets" : 1,
					"numoutlets" : 1,
					"outlettype" : [ "int" ],
					"parameter_enable" : 0,
					"patching_rect" : [ 594.0, 434.0, 24.0, 24.0 ]
				}

			}
, 			{
				"box" : 				{
					"id" : "obj-15",
					"maxclass" : "toggle",
					"numinlets" : 1,
					"numoutlets" : 1,
					"outlettype" : [ "int" ],
					"parameter_enable" : 0,
					"patching_rect" : [ 419.0, 94.0, 24.0, 24.0 ]
				}

			}
, 			{
				"box" : 				{
					"id" : "obj-12",
					"maxclass" : "toggle",
					"numinlets" : 1,
					"numoutlets" : 1,
					"outlettype" : [ "int" ],
					"parameter_enable" : 0,
					"patching_rect" : [ 337.5, 94.0, 24.0, 24.0 ]
				}

			}
, 			{
				"box" : 				{
					"id" : "obj-81",
					"maxclass" : "newobj",
					"numinlets" : 2,
					"numoutlets" : 1,
					"outlettype" : [ "signal" ],
					"patching_rect" : [ 90.0, 632.0, 43.0, 22.0 ],
					"text" : "cycle~"
				}

			}
, 			{
				"box" : 				{
					"id" : "obj-78",
					"maxclass" : "message",
					"numinlets" : 2,
					"numoutlets" : 1,
					"outlettype" : [ "" ],
					"patching_rect" : [ 529.0, 410.0, 39.0, 22.0 ],
					"text" : "rate 3"
				}

			}
, 			{
				"box" : 				{
					"id" : "obj-73",
					"maxclass" : "number",
					"numinlets" : 1,
					"numoutlets" : 2,
					"outlettype" : [ "", "bang" ],
					"parameter_enable" : 0,
					"patching_rect" : [ 568.0, 60.0, 50.0, 22.0 ]
				}

			}
, 			{
				"box" : 				{
					"id" : "obj-71",
					"maxclass" : "newobj",
					"numinlets" : 5,
					"numoutlets" : 4,
					"outlettype" : [ "int", "", "", "int" ],
					"patching_rect" : [ 568.0, 31.0, 65.0, 22.0 ],
					"text" : "counter 12"
				}

			}
, 			{
				"box" : 				{
					"id" : "obj-70",
					"maxclass" : "comment",
					"numinlets" : 1,
					"numoutlets" : 0,
					"patching_rect" : [ 102.75, 190.0, 134.0, 20.0 ],
					"text" : "series of trigger buttons"
				}

			}
, 			{
				"box" : 				{
					"id" : "obj-68",
					"maxclass" : "newobj",
					"numinlets" : 1,
					"numoutlets" : 1,
					"outlettype" : [ "" ],
					"patching_rect" : [ 872.0, 779.0, 83.0, 22.0 ],
					"text" : "loadmess 127"
				}

			}
, 			{
				"box" : 				{
					"id" : "obj-67",
					"maxclass" : "message",
					"numinlets" : 2,
					"numoutlets" : 1,
					"outlettype" : [ "" ],
					"patching_rect" : [ 213.0, 410.0, 29.5, 22.0 ],
					"text" : "0, 1"
				}

			}
, 			{
				"box" : 				{
					"id" : "obj-66",
					"maxclass" : "message",
					"numinlets" : 2,
					"numoutlets" : 1,
					"outlettype" : [ "" ],
					"patching_rect" : [ 248.0, 410.0, 29.5, 22.0 ],
					"text" : "0, 2"
				}

			}
, 			{
				"box" : 				{
					"id" : "obj-65",
					"maxclass" : "comment",
					"numinlets" : 1,
					"numoutlets" : 0,
					"patching_rect" : [ 239.0, 2.0, 150.0, 20.0 ],
					"text" : "randomly metro frequency"
				}

			}
, 			{
				"box" : 				{
					"id" : "obj-64",
					"maxclass" : "comment",
					"numinlets" : 1,
					"numoutlets" : 0,
					"patching_rect" : [ 387.75, 191.0, 150.0, 20.0 ],
					"text" : "randomly sequencers (x2)"
				}

			}
, 			{
				"box" : 				{
					"id" : "obj-61",
					"maxclass" : "newobj",
					"numinlets" : 5,
					"numoutlets" : 5,
					"outlettype" : [ "bang", "bang", "bang", "bang", "" ],
					"patching_rect" : [ 387.75, 233.0, 80.0, 22.0 ],
					"text" : "select 0 1 2 3"
				}

			}
, 			{
				"box" : 				{
					"id" : "obj-57",
					"maxclass" : "message",
					"numinlets" : 2,
					"numoutlets" : 1,
					"outlettype" : [ "" ],
					"patching_rect" : [ 175.0, 334.0, 119.0, 22.0 ],
					"text" : "selection 1 0. 0.02, 1"
				}

			}
, 			{
				"box" : 				{
					"id" : "obj-58",
					"maxclass" : "message",
					"numinlets" : 2,
					"numoutlets" : 1,
					"outlettype" : [ "" ],
					"patching_rect" : [ 175.0, 369.0, 133.0, 22.0 ],
					"text" : "selection 2 0.45 0.49, 2"
				}

			}
, 			{
				"box" : 				{
					"id" : "obj-59",
					"maxclass" : "message",
					"numinlets" : 2,
					"numoutlets" : 1,
					"outlettype" : [ "" ],
					"patching_rect" : [ 175.0, 270.0, 126.0, 22.0 ],
					"text" : "selection 1 0.55 0.6, 1"
				}

			}
, 			{
				"box" : 				{
					"id" : "obj-60",
					"maxclass" : "message",
					"numinlets" : 2,
					"numoutlets" : 1,
					"outlettype" : [ "" ],
					"patching_rect" : [ 175.0, 305.0, 126.0, 22.0 ],
					"text" : "selection 2 0.7 0.77, 2"
				}

			}
, 			{
				"box" : 				{
					"id" : "obj-54",
					"maxclass" : "newobj",
					"numinlets" : 5,
					"numoutlets" : 5,
					"outlettype" : [ "bang", "bang", "bang", "bang", "" ],
					"patching_rect" : [ 419.0, 42.0, 64.0, 22.0 ],
					"text" : "sel 0 1 2 3"
				}

			}
, 			{
				"box" : 				{
					"id" : "obj-53",
					"maxclass" : "gswitch2",
					"numinlets" : 2,
					"numoutlets" : 2,
					"outlettype" : [ "", "" ],
					"parameter_enable" : 0,
					"patching_rect" : [ 330.0, 149.0, 39.0, 32.0 ]
				}

			}
, 			{
				"box" : 				{
					"id" : "obj-52",
					"maxclass" : "gswitch2",
					"numinlets" : 2,
					"numoutlets" : 2,
					"outlettype" : [ "", "" ],
					"parameter_enable" : 0,
					"patching_rect" : [ 282.0, 149.0, 39.0, 32.0 ]
				}

			}
, 			{
				"box" : 				{
					"id" : "obj-51",
					"int" : 1,
					"maxclass" : "gswitch2",
					"numinlets" : 2,
					"numoutlets" : 2,
					"outlettype" : [ "", "" ],
					"parameter_enable" : 0,
					"patching_rect" : [ 233.5, 149.0, 39.0, 32.0 ]
				}

			}
, 			{
				"box" : 				{
					"id" : "obj-50",
					"maxclass" : "newobj",
					"numinlets" : 5,
					"numoutlets" : 4,
					"outlettype" : [ "int", "", "", "int" ],
					"patching_rect" : [ 248.0, 101.0, 61.0, 22.0 ],
					"text" : "counter 4"
				}

			}
, 			{
				"box" : 				{
					"id" : "obj-49",
					"int" : 1,
					"maxclass" : "gswitch2",
					"numinlets" : 2,
					"numoutlets" : 2,
					"outlettype" : [ "", "" ],
					"parameter_enable" : 0,
					"patching_rect" : [ 186.5, 149.0, 39.0, 32.0 ]
				}

			}
, 			{
				"box" : 				{
					"id" : "obj-44",
					"maxclass" : "message",
					"numinlets" : 2,
					"numoutlets" : 1,
					"outlettype" : [ "" ],
					"patching_rect" : [ 291.0, 29.0, 29.5, 22.0 ],
					"text" : "80"
				}

			}
, 			{
				"box" : 				{
					"id" : "obj-42",
					"maxclass" : "message",
					"numinlets" : 2,
					"numoutlets" : 1,
					"outlettype" : [ "" ],
					"patching_rect" : [ 329.0, 29.0, 29.5, 22.0 ],
					"text" : "200"
				}

			}
, 			{
				"box" : 				{
					"id" : "obj-40",
					"maxclass" : "message",
					"numinlets" : 2,
					"numoutlets" : 1,
					"outlettype" : [ "" ],
					"patching_rect" : [ 368.0, 29.0, 29.5, 22.0 ],
					"text" : "800"
				}

			}
, 			{
				"box" : 				{
					"id" : "obj-26",
					"maxclass" : "message",
					"numinlets" : 2,
					"numoutlets" : 1,
					"outlettype" : [ "" ],
					"patching_rect" : [ 39.0, 334.0, 119.0, 22.0 ],
					"text" : "selection 1 0. 0.02, 1"
				}

			}
, 			{
				"box" : 				{
					"id" : "obj-30",
					"maxclass" : "message",
					"numinlets" : 2,
					"numoutlets" : 1,
					"outlettype" : [ "" ],
					"patching_rect" : [ 39.0, 369.0, 126.0, 22.0 ],
					"text" : "selection 2 0.35 0.2, 2"
				}

			}
, 			{
				"box" : 				{
					"id" : "obj-20",
					"maxclass" : "message",
					"numinlets" : 2,
					"numoutlets" : 1,
					"outlettype" : [ "" ],
					"patching_rect" : [ 39.0, 270.0, 126.0, 22.0 ],
					"text" : "selection 1 0.45 0.5, 1"
				}

			}
, 			{
				"box" : 				{
					"bgmode" : 0,
					"border" : 0,
					"clickthrough" : 0,
					"embed" : 1,
					"enablehscroll" : 0,
					"enablevscroll" : 0,
					"id" : "obj-1",
					"lockeddragscroll" : 0,
					"lockedsize" : 0,
					"maxclass" : "bpatcher",
					"name" : "branding-text-links.maxpat",
					"numinlets" : 0,
					"numoutlets" : 0,
					"offset" : [ 0.0, 0.0 ],
					"patcher" : 					{
						"fileversion" : 1,
						"appversion" : 						{
							"major" : 8,
							"minor" : 5,
							"revision" : 4,
							"architecture" : "x64",
							"modernui" : 1
						}
,
						"classnamespace" : "box",
						"rect" : [ 364.0, 54.0, 337.0, 113.0 ],
						"bglocked" : 0,
						"openinpresentation" : 0,
						"default_fontsize" : 12.0,
						"default_fontface" : 0,
						"default_fontname" : "Arial",
						"gridonopen" : 1,
						"gridsize" : [ 15.0, 15.0 ],
						"gridsnaponopen" : 1,
						"objectsnaponopen" : 1,
						"statusbarvisible" : 2,
						"toolbarvisible" : 1,
						"lefttoolbarpinned" : 0,
						"toptoolbarpinned" : 0,
						"righttoolbarpinned" : 0,
						"bottomtoolbarpinned" : 0,
						"toolbars_unpinned_last_save" : 0,
						"tallnewobj" : 0,
						"boxanimatetime" : 200,
						"enablehscroll" : 1,
						"enablevscroll" : 1,
						"devicewidth" : 0.0,
						"description" : "",
						"digest" : "",
						"tags" : "",
						"style" : "",
						"subpatcher_template" : "",
						"assistshowspatchername" : 0,
						"boxes" : [ 							{
								"box" : 								{
									"id" : "obj-12",
									"linecount" : 3,
									"maxclass" : "comment",
									"numinlets" : 1,
									"numoutlets" : 0,
									"patching_rect" : [ 16.0, 63.0, 274.0, 62.0 ],
									"text" : "It is made available under the Creative Commons Attribution 4.0 International Public License: https://creativecommons.org/licenses/by/4.0/\n"
								}

							}
, 							{
								"box" : 								{
									"id" : "obj-5",
									"linecount" : 2,
									"maxclass" : "comment",
									"numinlets" : 1,
									"numoutlets" : 0,
									"patching_rect" : [ 16.0, 24.0, 324.0, 48.0 ],
									"text" : "This program is part of the Kadenze course \"Programming Max: Structuring Interactive Software for Digital Arts\" \n"
								}

							}
, 							{
								"box" : 								{
									"handoff" : "",
									"id" : "obj-16",
									"maxclass" : "ubutton",
									"numinlets" : 1,
									"numoutlets" : 4,
									"outlettype" : [ "bang", "bang", "", "int" ],
									"parameter_enable" : 0,
									"patching_rect" : [ 16.0, 63.0, 271.0, 47.0 ]
								}

							}
, 							{
								"box" : 								{
									"handoff" : "",
									"id" : "obj-15",
									"maxclass" : "ubutton",
									"numinlets" : 1,
									"numoutlets" : 4,
									"outlettype" : [ "bang", "bang", "", "int" ],
									"parameter_enable" : 0,
									"patching_rect" : [ 16.0, 24.0, 324.0, 33.0 ]
								}

							}
, 							{
								"box" : 								{
									"id" : "obj-9",
									"maxclass" : "comment",
									"numinlets" : 1,
									"numoutlets" : 0,
									"patching_rect" : [ -2.0, 2.0, 152.0, 20.0 ],
									"text" : "© 2016 by Matthew Wright"
								}

							}
, 							{
								"box" : 								{
									"hidden" : 1,
									"id" : "obj-7",
									"linecount" : 2,
									"maxclass" : "message",
									"numinlets" : 2,
									"numoutlets" : 1,
									"outlettype" : [ "" ],
									"patching_rect" : [ 96.0, 123.0, 355.0, 36.0 ],
									"text" : ";\r\nmax launchbrowser https://creativecommons.org/licenses/by/4.0/"
								}

							}
, 							{
								"box" : 								{
									"hidden" : 1,
									"id" : "obj-6",
									"linecount" : 4,
									"maxclass" : "message",
									"numinlets" : 2,
									"numoutlets" : 1,
									"outlettype" : [ "" ],
									"patching_rect" : [ 357.0, 48.0, 299.0, 64.0 ],
									"text" : ";\r\nmax launchbrowser https://www.kadenze.com/courses/programming-max-structuring-interactive-software-for-digital-arts/info"
								}

							}
 ],
						"lines" : [ 							{
								"patchline" : 								{
									"destination" : [ "obj-6", 0 ],
									"hidden" : 1,
									"source" : [ "obj-15", 0 ]
								}

							}
, 							{
								"patchline" : 								{
									"destination" : [ "obj-7", 0 ],
									"hidden" : 1,
									"source" : [ "obj-16", 0 ]
								}

							}
 ]
					}
,
					"patching_rect" : [ 684.0, 36.5, 337.0, 113.0 ],
					"viewvisibility" : 1
				}

			}
, 			{
				"box" : 				{
					"id" : "obj-235",
					"linecount" : 2,
					"maxclass" : "comment",
					"numinlets" : 1,
					"numoutlets" : 0,
					"patching_rect" : [ 642.0, 355.0, 110.0, 34.0 ],
					"text" : "Some chords Flavio composed"
				}

			}
, 			{
				"box" : 				{
					"id" : "obj-231",
					"maxclass" : "comment",
					"numinlets" : 1,
					"numoutlets" : 0,
					"patching_rect" : [ 642.0, 586.0, 96.0, 20.0 ],
					"text" : "MIDI notes"
				}

			}
, 			{
				"box" : 				{
					"id" : "obj-230",
					"maxclass" : "comment",
					"numinlets" : 1,
					"numoutlets" : 0,
					"patching_rect" : [ 356.5, 410.0, 96.0, 20.0 ],
					"text" : "Movie playback"
				}

			}
, 			{
				"box" : 				{
					"id" : "obj-229",
					"maxclass" : "comment",
					"numinlets" : 1,
					"numoutlets" : 0,
					"patching_rect" : [ 39.0, 239.0, 96.0, 20.0 ],
					"text" : "Sound playback"
				}

			}
, 			{
				"box" : 				{
					"id" : "obj-223",
					"maxclass" : "ezdac~",
					"numinlets" : 2,
					"numoutlets" : 0,
					"patching_rect" : [ 39.0, 725.0, 65.0, 65.0 ]
				}

			}
, 			{
				"box" : 				{
					"id" : "obj-222",
					"maxclass" : "gain~",
					"multichannelvariant" : 0,
					"numinlets" : 1,
					"numoutlets" : 2,
					"outlettype" : [ "signal", "" ],
					"parameter_enable" : 0,
					"patching_rect" : [ 39.0, 511.0, 22.0, 140.0 ]
				}

			}
, 			{
				"box" : 				{
					"id" : "obj-36",
					"linecount" : 3,
					"maxclass" : "comment",
					"numinlets" : 1,
					"numoutlets" : 0,
					"patching_rect" : [ 16.0, 94.0, 52.0, 48.0 ],
					"text" : "Escape key stops"
				}

			}
, 			{
				"box" : 				{
					"id" : "obj-35",
					"linecount" : 4,
					"maxclass" : "comment",
					"numinlets" : 1,
					"numoutlets" : 0,
					"patching_rect" : [ 80.0, 94.0, 55.0, 62.0 ],
					"text" : "Space bar toggles on/off"
				}

			}
, 			{
				"box" : 				{
					"id" : "obj-29",
					"maxclass" : "message",
					"numinlets" : 2,
					"numoutlets" : 1,
					"outlettype" : [ "" ],
					"patching_rect" : [ 469.0, 410.0, 51.0, 22.0 ],
					"text" : "rate 1.5"
				}

			}
, 			{
				"box" : 				{
					"id" : "obj-2",
					"maxclass" : "message",
					"numinlets" : 2,
					"numoutlets" : 1,
					"outlettype" : [ "" ],
					"patching_rect" : [ 39.0, 305.0, 126.0, 22.0 ],
					"text" : "selection 2 0.6 0.67, 2"
				}

			}
, 			{
				"box" : 				{
					"id" : "obj-45",
					"maxclass" : "newobj",
					"numinlets" : 0,
					"numoutlets" : 4,
					"outlettype" : [ "int", "int", "int", "int" ],
					"patching_rect" : [ 48.5, 17.0, 50.5, 22.0 ],
					"text" : "key"
				}

			}
, 			{
				"box" : 				{
					"id" : "obj-24",
					"maxclass" : "message",
					"numinlets" : 2,
					"numoutlets" : 1,
					"outlettype" : [ "" ],
					"patching_rect" : [ 49.0, 149.0, 29.5, 22.0 ],
					"text" : "0"
				}

			}
, 			{
				"box" : 				{
					"id" : "obj-16",
					"maxclass" : "newobj",
					"numinlets" : 3,
					"numoutlets" : 3,
					"outlettype" : [ "bang", "bang", "" ],
					"patching_rect" : [ 49.0, 68.0, 59.0, 22.0 ],
					"text" : "sel 27 32"
				}

			}
, 			{
				"box" : 				{
					"id" : "obj-13",
					"maxclass" : "number",
					"numinlets" : 1,
					"numoutlets" : 2,
					"outlettype" : [ "", "bang" ],
					"parameter_enable" : 0,
					"patching_rect" : [ 49.0, 42.0, 50.0, 22.0 ]
				}

			}
, 			{
				"box" : 				{
					"id" : "obj-33",
					"maxclass" : "number",
					"numinlets" : 1,
					"numoutlets" : 2,
					"outlettype" : [ "", "bang" ],
					"parameter_enable" : 0,
					"patching_rect" : [ 872.0, 815.0, 50.0, 22.0 ]
				}

			}
, 			{
				"box" : 				{
					"id" : "obj-31",
					"maxclass" : "newobj",
					"numinlets" : 2,
					"numoutlets" : 0,
					"patching_rect" : [ 872.0, 845.0, 51.0, 22.0 ],
					"text" : "pgmout"
				}

			}
, 			{
				"box" : 				{
					"id" : "obj-28",
					"maxclass" : "message",
					"numinlets" : 2,
					"numoutlets" : 1,
					"outlettype" : [ "" ],
					"patching_rect" : [ 282.0, 410.0, 29.5, 22.0 ],
					"text" : "0, 3"
				}

			}
, 			{
				"box" : 				{
					"id" : "obj-27",
					"maxclass" : "message",
					"numinlets" : 2,
					"numoutlets" : 1,
					"outlettype" : [ "" ],
					"patching_rect" : [ 321.0, 410.0, 31.0, 22.0 ],
					"text" : "0, 4"
				}

			}
, 			{
				"box" : 				{
					"id" : "obj-25",
					"maxclass" : "button",
					"numinlets" : 1,
					"numoutlets" : 1,
					"outlettype" : [ "bang" ],
					"parameter_enable" : 0,
					"patching_rect" : [ 144.0, 94.0, 24.0, 24.0 ]
				}

			}
, 			{
				"box" : 				{
					"id" : "obj-21",
					"maxclass" : "toggle",
					"numinlets" : 1,
					"numoutlets" : 1,
					"outlettype" : [ "int" ],
					"parameter_enable" : 0,
					"patching_rect" : [ 144.0, 37.0, 24.0, 24.0 ]
				}

			}
, 			{
				"box" : 				{
					"id" : "obj-19",
					"maxclass" : "newobj",
					"numinlets" : 2,
					"numoutlets" : 1,
					"outlettype" : [ "bang" ],
					"patching_rect" : [ 144.0, 67.0, 39.0, 22.0 ],
					"text" : "metro"
				}

			}
, 			{
				"box" : 				{
					"id" : "obj-8",
					"maxclass" : "message",
					"numinlets" : 2,
					"numoutlets" : 1,
					"outlettype" : [ "" ],
					"patching_rect" : [ 669.0, 472.0, 62.0, 22.0 ],
					"text" : "58, 78, 91"
				}

			}
, 			{
				"box" : 				{
					"id" : "obj-7",
					"maxclass" : "message",
					"numinlets" : 2,
					"numoutlets" : 1,
					"outlettype" : [ "" ],
					"patching_rect" : [ 656.0, 445.0, 62.0, 22.0 ],
					"text" : "51, 31, 35"
				}

			}
, 			{
				"box" : 				{
					"id" : "obj-9",
					"maxclass" : "newobj",
					"numinlets" : 3,
					"numoutlets" : 0,
					"patching_rect" : [ 642.0, 556.0, 51.0, 22.0 ],
					"text" : "noteout"
				}

			}
, 			{
				"box" : 				{
					"id" : "obj-10",
					"maxclass" : "newobj",
					"numinlets" : 3,
					"numoutlets" : 2,
					"outlettype" : [ "float", "float" ],
					"patching_rect" : [ 642.0, 520.0, 108.0, 22.0 ],
					"text" : "makenote 127 200"
				}

			}
, 			{
				"box" : 				{
					"id" : "obj-4",
					"maxclass" : "message",
					"numinlets" : 2,
					"numoutlets" : 1,
					"outlettype" : [ "" ],
					"patching_rect" : [ 642.0, 417.0, 62.0, 22.0 ],
					"text" : "12, 22, 35"
				}

			}
, 			{
				"box" : 				{
					"id" : "obj-6",
					"maxclass" : "newobj",
					"numinlets" : 5,
					"numoutlets" : 5,
					"outlettype" : [ "bang", "bang", "bang", "bang", "" ],
					"patching_rect" : [ 248.0, 190.0, 80.0, 22.0 ],
					"text" : "select 0 1 2 3"
				}

			}
, 			{
				"box" : 				{
					"basictuning" : 440,
					"clipheight" : 44.0,
					"data" : 					{
						"clips" : [ 							{
								"absolutepath" : "F:\\corsi\\kadenze\\2 assign\\material\\drm_loop02.wav",
								"filename" : "drm_loop02.wav",
								"filekind" : "audiofile",
								"id" : "u584000992",
								"selection" : [ 0.0, 0.02 ],
								"loop" : 0,
								"content_state" : 								{

								}

							}
, 							{
								"absolutepath" : "F:\\corsi\\kadenze\\2 assign\\material\\drm_loop01.wav",
								"filename" : "drm_loop01.wav",
								"filekind" : "audiofile",
								"id" : "u272000988",
								"selection" : [ 0.45, 0.49 ],
								"loop" : 0,
								"content_state" : 								{

								}

							}
 ]
					}
,
					"followglobaltempo" : 0,
					"formantcorrection" : 0,
					"id" : "obj-5",
					"maxclass" : "playlist~",
					"mode" : "basic",
					"numinlets" : 1,
					"numoutlets" : 5,
					"originallength" : [ 0.0, "ticks" ],
					"originaltempo" : 120.0,
					"outlettype" : [ "signal", "signal", "signal", "", "dictionary" ],
					"parameter_enable" : 0,
					"patching_rect" : [ 39.0, 410.0, 150.0, 90.0 ],
					"pitchcorrection" : 0,
					"quality" : "basic",
					"timestretch" : [ 0 ]
				}

			}
, 			{
				"box" : 				{
					"clipheight" : 32.0,
					"data" : 					{
						"clips" : [ 							{
								"absolutepath" : "F:\\corsi\\kadenze\\2 assign\\material\\5.mp4",
								"filename" : "5.mp4",
								"filekind" : "moviefile",
								"id" : "u090000978",
								"loop" : 0,
								"content_state" : 								{
									"rate" : 3
								}

							}
, 							{
								"absolutepath" : "F:\\corsi\\kadenze\\2 assign\\material\\4.mp4",
								"filename" : "4.mp4",
								"filekind" : "moviefile",
								"id" : "u212000968",
								"loop" : 0,
								"content_state" : 								{
									"rate" : 3
								}

							}
, 							{
								"absolutepath" : "F:\\corsi\\kadenze\\2 assign\\material\\3.mp4",
								"filename" : "3.mp4",
								"filekind" : "moviefile",
								"id" : "u014000958",
								"loop" : 0,
								"content_state" : 								{
									"rate" : 3
								}

							}
, 							{
								"absolutepath" : "F:\\corsi\\kadenze\\2 assign\\material\\1.mp4",
								"filename" : "1.mp4",
								"filekind" : "moviefile",
								"id" : "u408000947",
								"loop" : 0,
								"content_state" : 								{
									"rate" : 3
								}

							}
 ]
					}
,
					"drawto" : "",
					"id" : "obj-3",
					"loop" : 3,
					"maxclass" : "jit.playlist",
					"numinlets" : 1,
					"numoutlets" : 3,
					"outlettype" : [ "jit_matrix", "", "dictionary" ],
					"output_texture" : 0,
					"parameter_enable" : 0,
					"patching_rect" : [ 303.0, 475.0, 241.0, 132.0 ]
				}

			}
, 			{
				"box" : 				{
					"id" : "obj-11",
					"maxclass" : "jit.pwindow",
					"numinlets" : 1,
					"numoutlets" : 2,
					"outlettype" : [ "jit_matrix", "" ],
					"patching_rect" : [ 303.0, 621.0, 522.0, 289.0 ],
					"sync" : 1
				}

			}
 ],
		"lines" : [ 			{
				"patchline" : 				{
					"destination" : [ "obj-9", 1 ],
					"source" : [ "obj-10", 1 ]
				}

			}
, 			{
				"patchline" : 				{
					"destination" : [ "obj-9", 0 ],
					"source" : [ "obj-10", 0 ]
				}

			}
, 			{
				"patchline" : 				{
					"destination" : [ "obj-53", 0 ],
					"midpoints" : [ 347.0, 135.0, 339.5, 135.0 ],
					"source" : [ "obj-12", 0 ]
				}

			}
, 			{
				"patchline" : 				{
					"destination" : [ "obj-16", 0 ],
					"source" : [ "obj-13", 0 ]
				}

			}
, 			{
				"patchline" : 				{
					"destination" : [ "obj-52", 0 ],
					"midpoints" : [ 428.5, 135.0, 291.5, 135.0 ],
					"source" : [ "obj-15", 0 ]
				}

			}
, 			{
				"patchline" : 				{
					"destination" : [ "obj-21", 0 ],
					"midpoints" : [ 78.5, 90.0, 119.0, 90.0, 119.0, 27.0, 153.5, 27.0 ],
					"source" : [ "obj-16", 1 ]
				}

			}
, 			{
				"patchline" : 				{
					"destination" : [ "obj-24", 0 ],
					"source" : [ "obj-16", 0 ]
				}

			}
, 			{
				"patchline" : 				{
					"destination" : [ "obj-8", 0 ],
					"midpoints" : [ 603.5, 468.0, 678.5, 468.0 ],
					"order" : 0,
					"source" : [ "obj-18", 0 ]
				}

			}
, 			{
				"patchline" : 				{
					"destination" : [ "obj-92", 0 ],
					"order" : 1,
					"source" : [ "obj-18", 0 ]
				}

			}
, 			{
				"patchline" : 				{
					"destination" : [ "obj-25", 0 ],
					"source" : [ "obj-19", 0 ]
				}

			}
, 			{
				"patchline" : 				{
					"destination" : [ "obj-5", 0 ],
					"midpoints" : [ 48.5, 330.0, 26.0, 330.0, 26.0, 393.0, 48.5, 393.0 ],
					"source" : [ "obj-2", 0 ]
				}

			}
, 			{
				"patchline" : 				{
					"destination" : [ "obj-5", 0 ],
					"midpoints" : [ 48.5, 294.0, 26.0, 294.0, 26.0, 393.0, 48.5, 393.0 ],
					"source" : [ "obj-20", 0 ]
				}

			}
, 			{
				"patchline" : 				{
					"destination" : [ "obj-19", 0 ],
					"source" : [ "obj-21", 0 ]
				}

			}
, 			{
				"patchline" : 				{
					"destination" : [ "obj-4", 0 ],
					"midpoints" : [ 603.5, 402.0, 651.5, 402.0 ],
					"source" : [ "obj-22", 0 ]
				}

			}
, 			{
				"patchline" : 				{
					"destination" : [ "obj-223", 1 ],
					"midpoints" : [ 48.5, 711.0, 94.5, 711.0 ],
					"order" : 0,
					"source" : [ "obj-222", 0 ]
				}

			}
, 			{
				"patchline" : 				{
					"destination" : [ "obj-223", 0 ],
					"order" : 1,
					"source" : [ "obj-222", 0 ]
				}

			}
, 			{
				"patchline" : 				{
					"destination" : [ "obj-21", 0 ],
					"midpoints" : [ 58.5, 174.0, 146.0, 174.0, 146.0, 135.0, 140.0, 135.0, 140.0, 33.0, 153.5, 33.0 ],
					"order" : 1,
					"source" : [ "obj-24", 0 ]
				}

			}
, 			{
				"patchline" : 				{
					"destination" : [ "obj-94", 0 ],
					"midpoints" : [ 58.5, 225.0, 318.0, 225.0, 318.0, 453.0, 248.5, 453.0 ],
					"order" : 0,
					"source" : [ "obj-24", 0 ]
				}

			}
, 			{
				"patchline" : 				{
					"destination" : [ "obj-50", 0 ],
					"midpoints" : [ 153.5, 135.0, 234.0, 135.0, 234.0, 96.0, 257.5, 96.0 ],
					"order" : 1,
					"source" : [ "obj-25", 0 ]
				}

			}
, 			{
				"patchline" : 				{
					"destination" : [ "obj-71", 0 ],
					"midpoints" : [ 153.5, 135.0, 555.0, 135.0, 555.0, 27.0, 577.5, 27.0 ],
					"order" : 0,
					"source" : [ "obj-25", 0 ]
				}

			}
, 			{
				"patchline" : 				{
					"destination" : [ "obj-5", 0 ],
					"midpoints" : [ 48.5, 357.0, 26.0, 357.0, 26.0, 393.0, 48.5, 393.0 ],
					"source" : [ "obj-26", 0 ]
				}

			}
, 			{
				"patchline" : 				{
					"destination" : [ "obj-3", 0 ],
					"source" : [ "obj-27", 0 ]
				}

			}
, 			{
				"patchline" : 				{
					"destination" : [ "obj-3", 0 ],
					"source" : [ "obj-28", 0 ]
				}

			}
, 			{
				"patchline" : 				{
					"destination" : [ "obj-3", 0 ],
					"source" : [ "obj-29", 0 ]
				}

			}
, 			{
				"patchline" : 				{
					"destination" : [ "obj-11", 0 ],
					"source" : [ "obj-3", 0 ]
				}

			}
, 			{
				"patchline" : 				{
					"destination" : [ "obj-5", 0 ],
					"source" : [ "obj-30", 0 ]
				}

			}
, 			{
				"patchline" : 				{
					"destination" : [ "obj-31", 0 ],
					"source" : [ "obj-33", 0 ]
				}

			}
, 			{
				"patchline" : 				{
					"destination" : [ "obj-48", 0 ],
					"order" : 1,
					"source" : [ "obj-38", 0 ]
				}

			}
, 			{
				"patchline" : 				{
					"destination" : [ "obj-63", 0 ],
					"midpoints" : [ 99.5, 558.0, 177.25, 558.0 ],
					"order" : 0,
					"source" : [ "obj-38", 0 ]
				}

			}
, 			{
				"patchline" : 				{
					"destination" : [ "obj-10", 0 ],
					"source" : [ "obj-4", 0 ]
				}

			}
, 			{
				"patchline" : 				{
					"destination" : [ "obj-19", 1 ],
					"midpoints" : [ 377.5, 63.0, 173.5, 63.0 ],
					"source" : [ "obj-40", 0 ]
				}

			}
, 			{
				"patchline" : 				{
					"destination" : [ "obj-19", 1 ],
					"midpoints" : [ 338.5, 63.0, 173.5, 63.0 ],
					"source" : [ "obj-42", 0 ]
				}

			}
, 			{
				"patchline" : 				{
					"destination" : [ "obj-81", 0 ],
					"source" : [ "obj-43", 0 ]
				}

			}
, 			{
				"patchline" : 				{
					"destination" : [ "obj-19", 1 ],
					"midpoints" : [ 300.5, 63.0, 173.5, 63.0 ],
					"order" : 1,
					"source" : [ "obj-44", 0 ]
				}

			}
, 			{
				"patchline" : 				{
					"destination" : [ "obj-92", 1 ],
					"midpoints" : [ 300.5, 81.0, 546.0, 81.0, 546.0, 385.0, 588.5, 385.0 ],
					"order" : 0,
					"source" : [ "obj-44", 0 ]
				}

			}
, 			{
				"patchline" : 				{
					"destination" : [ "obj-13", 0 ],
					"source" : [ "obj-45", 0 ]
				}

			}
, 			{
				"patchline" : 				{
					"destination" : [ "obj-81", 0 ],
					"source" : [ "obj-47", 0 ]
				}

			}
, 			{
				"patchline" : 				{
					"destination" : [ "obj-43", 0 ],
					"source" : [ "obj-48", 1 ]
				}

			}
, 			{
				"patchline" : 				{
					"destination" : [ "obj-47", 0 ],
					"source" : [ "obj-48", 0 ]
				}

			}
, 			{
				"patchline" : 				{
					"destination" : [ "obj-51", 1 ],
					"midpoints" : [ 216.0, 183.0, 228.0, 183.0, 228.0, 144.0, 263.0, 144.0 ],
					"source" : [ "obj-49", 1 ]
				}

			}
, 			{
				"patchline" : 				{
					"destination" : [ "obj-53", 1 ],
					"midpoints" : [ 196.0, 183.0, 228.0, 183.0, 228.0, 135.0, 359.5, 135.0 ],
					"source" : [ "obj-49", 0 ]
				}

			}
, 			{
				"patchline" : 				{
					"destination" : [ "obj-222", 0 ],
					"order" : 1,
					"source" : [ "obj-5", 0 ]
				}

			}
, 			{
				"patchline" : 				{
					"destination" : [ "obj-98", 1 ],
					"midpoints" : [ 81.25, 516.0, 253.5, 516.0 ],
					"source" : [ "obj-5", 1 ]
				}

			}
, 			{
				"patchline" : 				{
					"destination" : [ "obj-98", 0 ],
					"midpoints" : [ 48.5, 507.0, 72.0, 507.0, 72.0, 711.0, 142.5, 711.0 ],
					"order" : 0,
					"source" : [ "obj-5", 0 ]
				}

			}
, 			{
				"patchline" : 				{
					"destination" : [ "obj-49", 1 ],
					"midpoints" : [ 257.5, 135.0, 216.0, 135.0 ],
					"order" : 1,
					"source" : [ "obj-50", 0 ]
				}

			}
, 			{
				"patchline" : 				{
					"destination" : [ "obj-54", 0 ],
					"midpoints" : [ 257.5, 135.0, 410.0, 135.0, 410.0, 33.0, 428.5, 33.0 ],
					"order" : 0,
					"source" : [ "obj-50", 0 ]
				}

			}
, 			{
				"patchline" : 				{
					"destination" : [ "obj-52", 1 ],
					"midpoints" : [ 263.0, 183.0, 279.0, 183.0, 279.0, 144.0, 311.5, 144.0 ],
					"source" : [ "obj-51", 1 ]
				}

			}
, 			{
				"patchline" : 				{
					"destination" : [ "obj-53", 1 ],
					"midpoints" : [ 243.0, 183.0, 279.0, 183.0, 279.0, 135.0, 359.5, 135.0 ],
					"source" : [ "obj-51", 0 ]
				}

			}
, 			{
				"patchline" : 				{
					"destination" : [ "obj-53", 1 ],
					"midpoints" : [ 311.5, 183.0, 327.0, 183.0, 327.0, 144.0, 359.5, 144.0 ],
					"source" : [ "obj-52", 1 ]
				}

			}
, 			{
				"patchline" : 				{
					"destination" : [ "obj-53", 1 ],
					"midpoints" : [ 291.5, 183.0, 327.0, 183.0, 327.0, 144.0, 359.5, 144.0 ],
					"source" : [ "obj-52", 0 ]
				}

			}
, 			{
				"patchline" : 				{
					"destination" : [ "obj-6", 0 ],
					"midpoints" : [ 359.5, 185.0, 257.5, 185.0 ],
					"source" : [ "obj-53", 1 ]
				}

			}
, 			{
				"patchline" : 				{
					"destination" : [ "obj-61", 0 ],
					"source" : [ "obj-53", 0 ]
				}

			}
, 			{
				"patchline" : 				{
					"destination" : [ "obj-12", 0 ],
					"midpoints" : [ 462.25, 72.0, 410.0, 72.0, 410.0, 87.0, 347.0, 87.0 ],
					"source" : [ "obj-54", 3 ]
				}

			}
, 			{
				"patchline" : 				{
					"destination" : [ "obj-15", 0 ],
					"midpoints" : [ 439.75, 72.0, 428.5, 72.0 ],
					"source" : [ "obj-54", 1 ]
				}

			}
, 			{
				"patchline" : 				{
					"destination" : [ "obj-49", 0 ],
					"midpoints" : [ 428.5, 72.0, 410.0, 72.0, 410.0, 135.0, 196.0, 135.0 ],
					"source" : [ "obj-54", 0 ]
				}

			}
, 			{
				"patchline" : 				{
					"destination" : [ "obj-51", 0 ],
					"midpoints" : [ 451.0, 72.0, 410.0, 72.0, 410.0, 135.0, 243.0, 135.0 ],
					"source" : [ "obj-54", 2 ]
				}

			}
, 			{
				"patchline" : 				{
					"destination" : [ "obj-38", 0 ],
					"midpoints" : [ 630.5, 330.0, 579.0, 330.0, 579.0, 453.0, 201.0, 453.0, 201.0, 516.0, 99.5, 516.0 ],
					"source" : [ "obj-55", 0 ]
				}

			}
, 			{
				"patchline" : 				{
					"destination" : [ "obj-62", 0 ],
					"source" : [ "obj-56", 0 ]
				}

			}
, 			{
				"patchline" : 				{
					"destination" : [ "obj-5", 0 ],
					"midpoints" : [ 184.5, 357.0, 167.0, 357.0, 167.0, 393.0, 48.5, 393.0 ],
					"source" : [ "obj-57", 0 ]
				}

			}
, 			{
				"patchline" : 				{
					"destination" : [ "obj-5", 0 ],
					"midpoints" : [ 184.5, 393.0, 48.5, 393.0 ],
					"source" : [ "obj-58", 0 ]
				}

			}
, 			{
				"patchline" : 				{
					"destination" : [ "obj-5", 0 ],
					"midpoints" : [ 184.5, 294.0, 26.0, 294.0, 26.0, 393.0, 48.5, 393.0 ],
					"source" : [ "obj-59", 0 ]
				}

			}
, 			{
				"patchline" : 				{
					"destination" : [ "obj-2", 0 ],
					"midpoints" : [ 257.5, 225.0, 26.0, 225.0, 26.0, 300.0, 48.5, 300.0 ],
					"source" : [ "obj-6", 0 ]
				}

			}
, 			{
				"patchline" : 				{
					"destination" : [ "obj-20", 0 ],
					"midpoints" : [ 272.75, 234.0, 146.0, 234.0, 146.0, 225.0, 26.0, 225.0, 26.0, 264.0, 48.5, 264.0 ],
					"order" : 2,
					"source" : [ "obj-6", 1 ]
				}

			}
, 			{
				"patchline" : 				{
					"destination" : [ "obj-26", 0 ],
					"midpoints" : [ 288.0, 234.0, 146.0, 234.0, 146.0, 225.0, 26.0, 225.0, 26.0, 330.0, 48.5, 330.0 ],
					"order" : 3,
					"source" : [ "obj-6", 2 ]
				}

			}
, 			{
				"patchline" : 				{
					"destination" : [ "obj-27", 0 ],
					"midpoints" : [ 303.25, 255.0, 330.5, 255.0 ],
					"order" : 0,
					"source" : [ "obj-6", 3 ]
				}

			}
, 			{
				"patchline" : 				{
					"destination" : [ "obj-28", 0 ],
					"midpoints" : [ 288.0, 255.0, 311.0, 255.0, 311.0, 405.0, 291.5, 405.0 ],
					"order" : 2,
					"source" : [ "obj-6", 2 ]
				}

			}
, 			{
				"patchline" : 				{
					"destination" : [ "obj-29", 0 ],
					"midpoints" : [ 318.5, 396.0, 478.5, 396.0 ],
					"order" : 0,
					"source" : [ "obj-6", 4 ]
				}

			}
, 			{
				"patchline" : 				{
					"destination" : [ "obj-30", 0 ],
					"midpoints" : [ 303.25, 234.0, 146.0, 234.0, 146.0, 225.0, 26.0, 225.0, 26.0, 363.0, 48.5, 363.0 ],
					"order" : 1,
					"source" : [ "obj-6", 3 ]
				}

			}
, 			{
				"patchline" : 				{
					"destination" : [ "obj-40", 0 ],
					"midpoints" : [ 272.75, 222.0, 372.0, 222.0, 372.0, 135.0, 384.0, 135.0, 384.0, 63.0, 363.0, 63.0, 363.0, 24.0, 377.5, 24.0 ],
					"order" : 0,
					"source" : [ "obj-6", 1 ]
				}

			}
, 			{
				"patchline" : 				{
					"destination" : [ "obj-42", 0 ],
					"midpoints" : [ 288.0, 222.0, 339.0, 222.0, 339.0, 183.0, 327.0, 183.0, 327.0, 51.0, 324.0, 51.0, 324.0, 24.0, 338.5, 24.0 ],
					"order" : 1,
					"source" : [ "obj-6", 2 ]
				}

			}
, 			{
				"patchline" : 				{
					"destination" : [ "obj-44", 0 ],
					"midpoints" : [ 318.5, 213.0, 330.0, 213.0, 330.0, 183.0, 327.0, 183.0, 327.0, 63.0, 321.0, 63.0, 321.0, 24.0, 300.5, 24.0 ],
					"order" : 1,
					"source" : [ "obj-6", 4 ]
				}

			}
, 			{
				"patchline" : 				{
					"destination" : [ "obj-66", 0 ],
					"midpoints" : [ 272.75, 255.0, 318.0, 255.0, 318.0, 405.0, 257.5, 405.0 ],
					"order" : 1,
					"source" : [ "obj-6", 1 ]
				}

			}
, 			{
				"patchline" : 				{
					"destination" : [ "obj-7", 0 ],
					"midpoints" : [ 288.0, 255.0, 372.0, 255.0, 372.0, 396.0, 627.0, 396.0, 627.0, 441.0, 665.5, 441.0 ],
					"order" : 0,
					"source" : [ "obj-6", 2 ]
				}

			}
, 			{
				"patchline" : 				{
					"destination" : [ "obj-5", 0 ],
					"midpoints" : [ 184.5, 330.0, 167.0, 330.0, 167.0, 393.0, 48.5, 393.0 ],
					"source" : [ "obj-60", 0 ]
				}

			}
, 			{
				"patchline" : 				{
					"destination" : [ "obj-18", 0 ],
					"midpoints" : [ 412.5, 396.0, 603.5, 396.0 ],
					"order" : 0,
					"source" : [ "obj-61", 1 ]
				}

			}
, 			{
				"patchline" : 				{
					"destination" : [ "obj-22", 0 ],
					"midpoints" : [ 427.75, 330.0, 603.5, 330.0 ],
					"order" : 0,
					"source" : [ "obj-61", 2 ]
				}

			}
, 			{
				"patchline" : 				{
					"destination" : [ "obj-57", 0 ],
					"midpoints" : [ 427.75, 330.0, 184.5, 330.0 ],
					"order" : 1,
					"source" : [ "obj-61", 2 ]
				}

			}
, 			{
				"patchline" : 				{
					"destination" : [ "obj-58", 0 ],
					"midpoints" : [ 443.0, 363.0, 184.5, 363.0 ],
					"source" : [ "obj-61", 3 ]
				}

			}
, 			{
				"patchline" : 				{
					"destination" : [ "obj-59", 0 ],
					"midpoints" : [ 397.25, 267.0, 184.5, 267.0 ],
					"order" : 1,
					"source" : [ "obj-61", 0 ]
				}

			}
, 			{
				"patchline" : 				{
					"destination" : [ "obj-60", 0 ],
					"midpoints" : [ 412.5, 267.0, 311.0, 267.0, 311.0, 255.0, 170.0, 255.0, 170.0, 297.0, 184.5, 297.0 ],
					"order" : 1,
					"source" : [ "obj-61", 1 ]
				}

			}
, 			{
				"patchline" : 				{
					"destination" : [ "obj-67", 0 ],
					"midpoints" : [ 397.25, 396.0, 222.5, 396.0 ],
					"order" : 0,
					"source" : [ "obj-61", 0 ]
				}

			}
, 			{
				"patchline" : 				{
					"destination" : [ "obj-78", 0 ],
					"midpoints" : [ 458.25, 396.0, 538.5, 396.0 ],
					"source" : [ "obj-61", 4 ]
				}

			}
, 			{
				"patchline" : 				{
					"destination" : [ "obj-38", 0 ],
					"midpoints" : [ 177.25, 653.0, 153.0, 653.0, 153.0, 624.0, 161.0, 624.0, 161.0, 585.0, 144.0, 585.0, 144.0, 525.0, 99.5, 525.0 ],
					"source" : [ "obj-62", 0 ]
				}

			}
, 			{
				"patchline" : 				{
					"destination" : [ "obj-56", 0 ],
					"source" : [ "obj-63", 0 ]
				}

			}
, 			{
				"patchline" : 				{
					"destination" : [ "obj-3", 0 ],
					"source" : [ "obj-66", 0 ]
				}

			}
, 			{
				"patchline" : 				{
					"destination" : [ "obj-3", 0 ],
					"source" : [ "obj-67", 0 ]
				}

			}
, 			{
				"patchline" : 				{
					"destination" : [ "obj-33", 0 ],
					"source" : [ "obj-68", 0 ]
				}

			}
, 			{
				"patchline" : 				{
					"destination" : [ "obj-10", 0 ],
					"source" : [ "obj-7", 0 ]
				}

			}
, 			{
				"patchline" : 				{
					"destination" : [ "obj-73", 0 ],
					"source" : [ "obj-71", 0 ]
				}

			}
, 			{
				"patchline" : 				{
					"destination" : [ "obj-55", 0 ],
					"midpoints" : [ 577.5, 123.0, 630.5, 123.0 ],
					"order" : 1,
					"source" : [ "obj-73", 0 ]
				}

			}
, 			{
				"patchline" : 				{
					"destination" : [ "obj-76", 0 ],
					"midpoints" : [ 577.5, 123.0, 668.5, 123.0 ],
					"order" : 0,
					"source" : [ "obj-73", 0 ]
				}

			}
, 			{
				"patchline" : 				{
					"destination" : [ "obj-87", 0 ],
					"midpoints" : [ 668.5, 213.0, 756.0, 213.0, 756.0, 189.0, 779.5, 189.0 ],
					"source" : [ "obj-76", 0 ]
				}

			}
, 			{
				"patchline" : 				{
					"destination" : [ "obj-3", 0 ],
					"source" : [ "obj-78", 0 ]
				}

			}
, 			{
				"patchline" : 				{
					"destination" : [ "obj-10", 0 ],
					"source" : [ "obj-8", 0 ]
				}

			}
, 			{
				"patchline" : 				{
					"destination" : [ "obj-83", 0 ],
					"source" : [ "obj-80", 0 ]
				}

			}
, 			{
				"patchline" : 				{
					"destination" : [ "obj-90", 0 ],
					"source" : [ "obj-81", 0 ]
				}

			}
, 			{
				"patchline" : 				{
					"destination" : [ "obj-87", 0 ],
					"midpoints" : [ 857.25, 315.0, 833.0, 315.0, 833.0, 286.0, 841.0, 286.0, 841.0, 247.0, 824.0, 247.0, 824.0, 187.0, 779.5, 187.0 ],
					"source" : [ "obj-82", 0 ]
				}

			}
, 			{
				"patchline" : 				{
					"destination" : [ "obj-82", 0 ],
					"source" : [ "obj-83", 0 ]
				}

			}
, 			{
				"patchline" : 				{
					"destination" : [ "obj-85", 0 ],
					"source" : [ "obj-84", 0 ]
				}

			}
, 			{
				"patchline" : 				{
					"destination" : [ "obj-86", 0 ],
					"source" : [ "obj-84", 1 ]
				}

			}
, 			{
				"patchline" : 				{
					"destination" : [ "obj-88", 0 ],
					"source" : [ "obj-85", 0 ]
				}

			}
, 			{
				"patchline" : 				{
					"destination" : [ "obj-88", 0 ],
					"source" : [ "obj-86", 0 ]
				}

			}
, 			{
				"patchline" : 				{
					"destination" : [ "obj-80", 0 ],
					"midpoints" : [ 779.5, 220.0, 857.25, 220.0 ],
					"order" : 0,
					"source" : [ "obj-87", 0 ]
				}

			}
, 			{
				"patchline" : 				{
					"destination" : [ "obj-84", 0 ],
					"order" : 1,
					"source" : [ "obj-87", 0 ]
				}

			}
, 			{
				"patchline" : 				{
					"destination" : [ "obj-89", 0 ],
					"source" : [ "obj-88", 0 ]
				}

			}
, 			{
				"patchline" : 				{
					"destination" : [ "obj-100", 0 ],
					"midpoints" : [ 779.5, 435.0, 910.75, 435.0 ],
					"order" : 0,
					"source" : [ "obj-89", 0 ]
				}

			}
, 			{
				"patchline" : 				{
					"destination" : [ "obj-223", 0 ],
					"midpoints" : [ 779.5, 402.0, 579.0, 402.0, 579.0, 453.0, 201.0, 453.0, 201.0, 516.0, 72.0, 516.0, 72.0, 663.0, 48.5, 663.0 ],
					"order" : 1,
					"source" : [ "obj-89", 0 ]
				}

			}
, 			{
				"patchline" : 				{
					"destination" : [ "obj-223", 1 ],
					"midpoints" : [ 99.5, 711.0, 94.5, 711.0 ],
					"order" : 1,
					"source" : [ "obj-90", 0 ]
				}

			}
, 			{
				"patchline" : 				{
					"destination" : [ "obj-99", 0 ],
					"midpoints" : [ 99.5, 696.0, 288.0, 696.0, 288.0, 444.0, 579.0, 444.0, 579.0, 402.0, 773.75, 402.0 ],
					"order" : 0,
					"source" : [ "obj-90", 0 ]
				}

			}
, 			{
				"patchline" : 				{
					"destination" : [ "obj-10", 0 ],
					"midpoints" : [ 568.5, 507.0, 651.5, 507.0 ],
					"source" : [ "obj-92", 0 ]
				}

			}
, 			{
				"patchline" : 				{
					"destination" : [ "obj-3", 0 ],
					"midpoints" : [ 248.5, 492.0, 288.0, 492.0, 288.0, 462.0, 312.5, 462.0 ],
					"source" : [ "obj-94", 0 ]
				}

			}
 ],
		"dependency_cache" : [ 			{
				"name" : "1.mp4",
				"bootpath" : "F:/corsi/kadenze/2 assign/material",
				"patcherrelativepath" : "./material",
				"type" : "mpg4",
				"implicit" : 1
			}
, 			{
				"name" : "3.mp4",
				"bootpath" : "F:/corsi/kadenze/2 assign/material",
				"patcherrelativepath" : "./material",
				"type" : "mpg4",
				"implicit" : 1
			}
, 			{
				"name" : "4.mp4",
				"bootpath" : "F:/corsi/kadenze/2 assign/material",
				"patcherrelativepath" : "./material",
				"type" : "mpg4",
				"implicit" : 1
			}
, 			{
				"name" : "5.mp4",
				"bootpath" : "F:/corsi/kadenze/2 assign/material",
				"patcherrelativepath" : "./material",
				"type" : "mpg4",
				"implicit" : 1
			}
, 			{
				"name" : "drm_loop01.wav",
				"bootpath" : "F:/corsi/kadenze/2 assign/material",
				"patcherrelativepath" : "./material",
				"type" : "WAVE",
				"implicit" : 1
			}
, 			{
				"name" : "drm_loop02.wav",
				"bootpath" : "F:/corsi/kadenze/2 assign/material",
				"patcherrelativepath" : "./material",
				"type" : "WAVE",
				"implicit" : 1
			}
 ],
		"autosave" : 0
	}

}
